<svg width="18" height="18" viewBox="0 0 18 18" fill="none" xmlns="http://www.w3.org/2000/svg">
<path d="M17.1948 1.48096H14.2418C14.1827 1.48096 14.1259 1.50445 14.0841 1.54627C14.0423 1.58809 14.0188 1.64481 14.0188 1.70396C14.0188 1.74196 14.0308 1.77596 14.0473 1.80696V3.50596C14.0474 3.56822 14.0351 3.62989 14.0113 3.68743C13.9876 3.74497 13.9526 3.79724 13.9086 3.84127C13.8646 3.8853 13.8123 3.92021 13.7548 3.94401C13.6972 3.96781 13.6356 3.98002 13.5733 3.97996H12.6543C12.5965 3.97996 12.5393 3.96858 12.4859 3.94646C12.4325 3.92435 12.384 3.89194 12.3432 3.85108C12.3023 3.81023 12.2699 3.76172 12.2478 3.70834C12.2257 3.65495 12.2143 3.59774 12.2143 3.53996V1.83446C12.2438 1.79725 12.2603 1.75142 12.2613 1.70396C12.2614 1.67465 12.2556 1.64563 12.2445 1.61854C12.2333 1.59146 12.2168 1.56685 12.1961 1.54613C12.1754 1.52541 12.1508 1.50898 12.1237 1.4978C12.0966 1.48661 12.0676 1.48089 12.0383 1.48096H6.0858C6.02665 1.48096 5.96993 1.50445 5.92811 1.54627C5.88629 1.58809 5.8628 1.64481 5.8628 1.70396C5.8628 1.73846 5.8723 1.76996 5.8863 1.79946V3.51796C5.8863 3.57869 5.87433 3.63884 5.85109 3.69495C5.82785 3.75106 5.79378 3.80205 5.75083 3.84499C5.70789 3.88794 5.6569 3.92201 5.60079 3.94525C5.54467 3.96849 5.48453 3.98046 5.4238 3.98046H4.6078C4.48394 3.98046 4.36516 3.93126 4.27758 3.84368C4.19 3.7561 4.1408 3.63731 4.1408 3.51346V1.81196C4.16065 1.77937 4.17152 1.74211 4.1723 1.70396C4.17236 1.67465 4.16664 1.64563 4.15546 1.61854C4.14427 1.59146 4.12785 1.56685 4.10713 1.54613C4.08641 1.52541 4.0618 1.50898 4.03471 1.4978C4.00763 1.48661 3.9786 1.48089 3.9493 1.48096H0.837797C0.706377 1.48109 0.58037 1.53332 0.487394 1.6262C0.394419 1.71908 0.342062 1.84504 0.341797 1.97646V16.7435C0.341797 17.0175 0.564297 17.24 0.837797 17.24H17.1948C17.3263 17.2397 17.4523 17.1873 17.5452 17.0942C17.6381 17.0011 17.6903 16.875 17.6903 16.7435V1.97646C17.69 1.84512 17.6377 1.71925 17.5449 1.62638C17.452 1.53351 17.3261 1.48122 17.1948 1.48096ZM17.1948 16.794H0.837797C0.831188 16.794 0.824646 16.7926 0.818546 16.7901C0.812447 16.7876 0.806913 16.7838 0.802263 16.7791C0.797614 16.7744 0.793941 16.7689 0.791458 16.7627C0.788975 16.7566 0.787731 16.7501 0.787797 16.7435V5.60696H17.2443V16.743C17.2444 16.7496 17.2433 16.7561 17.2408 16.7623C17.2384 16.7684 17.2348 16.774 17.2302 16.7788C17.2256 16.7835 17.2201 16.7873 17.214 16.7899C17.2079 16.7925 17.2014 16.7939 17.1948 16.794Z" fill="#007CC7"/>
<path d="M5.07359 3.47198C5.19659 3.47198 5.29659 3.37198 5.29659 3.24898V0.249978C5.29659 0.220693 5.29082 0.191695 5.27961 0.164639C5.2684 0.137584 5.25198 0.113 5.23127 0.0922928C5.21056 0.0715853 5.18598 0.0551593 5.15892 0.0439525C5.13187 0.0327457 5.10287 0.0269775 5.07359 0.0269775C5.0443 0.0269775 5.0153 0.0327457 4.98825 0.0439525C4.96119 0.0551593 4.93661 0.0715853 4.9159 0.0922928C4.89519 0.113 4.87877 0.137584 4.86756 0.164639C4.85635 0.191695 4.85059 0.220693 4.85059 0.249978V3.24948C4.85059 3.37248 4.95059 3.47198 5.07359 3.47198Z" fill="#007CC7"/>
<path d="M13.1507 3.47198C13.2737 3.47198 13.3737 3.37198 13.3737 3.24898V0.249978C13.3737 0.190834 13.3502 0.134113 13.3084 0.0922928C13.2666 0.0504722 13.2099 0.0269775 13.1507 0.0269775C13.0916 0.0269775 13.0349 0.0504722 12.993 0.0922928C12.9512 0.134113 12.9277 0.190834 12.9277 0.249978V3.24948C12.9277 3.37248 13.0272 3.47198 13.1507 3.47198Z" fill="#007CC7"/>
<path d="M3.92138 8.98046C4.60014 8.98046 5.15038 8.43022 5.15038 7.75146C5.15038 7.0727 4.60014 6.52246 3.92138 6.52246C3.24262 6.52246 2.69238 7.0727 2.69238 7.75146C2.69238 8.43022 3.24262 8.98046 3.92138 8.98046Z" fill="#007CC7"/>
<path d="M7.45361 8.98046C8.13237 8.98046 8.68261 8.43022 8.68261 7.75146C8.68261 7.0727 8.13237 6.52246 7.45361 6.52246C6.77485 6.52246 6.22461 7.0727 6.22461 7.75146C6.22461 8.43022 6.77485 8.98046 7.45361 8.98046Z" fill="#007CC7"/>
<path d="M10.9849 8.98046C11.6636 8.98046 12.2139 8.43022 12.2139 7.75146C12.2139 7.0727 11.6636 6.52246 10.9849 6.52246C10.3061 6.52246 9.75586 7.0727 9.75586 7.75146C9.75586 8.43022 10.3061 8.98046 10.9849 8.98046Z" fill="#007CC7"/>
<path d="M3.92138 12.4029C4.60014 12.4029 5.15038 11.8527 5.15038 11.1739C5.15038 10.4952 4.60014 9.94495 3.92138 9.94495C3.24262 9.94495 2.69238 10.4952 2.69238 11.1739C2.69238 11.8527 3.24262 12.4029 3.92138 12.4029Z" fill="#007CC7"/>
<path d="M7.45361 12.4029C8.13237 12.4029 8.68261 11.8527 8.68261 11.1739C8.68261 10.4952 8.13237 9.94495 7.45361 9.94495C6.77485 9.94495 6.22461 10.4952 6.22461 11.1739C6.22461 11.8527 6.77485 12.4029 7.45361 12.4029Z" fill="#007CC7"/>
<path d="M10.9849 12.4029C11.6636 12.4029 12.2139 11.8527 12.2139 11.1739C12.2139 10.4952 11.6636 9.94495 10.9849 9.94495C10.3061 9.94495 9.75586 10.4952 9.75586 11.1739C9.75586 11.8527 10.3061 12.4029 10.9849 12.4029Z" fill="#007CC7"/>
<path d="M3.92138 15.8254C4.60014 15.8254 5.15038 15.2752 5.15038 14.5964C5.15038 13.9177 4.60014 13.3674 3.92138 13.3674C3.24262 13.3674 2.69238 13.9177 2.69238 14.5964C2.69238 15.2752 3.24262 15.8254 3.92138 15.8254Z" fill="#007CC7"/>
<path d="M7.45361 15.8254C8.13237 15.8254 8.68261 15.2752 8.68261 14.5964C8.68261 13.9177 8.13237 13.3674 7.45361 13.3674C6.77485 13.3674 6.22461 13.9177 6.22461 14.5964C6.22461 15.2752 6.77485 15.8254 7.45361 15.8254Z" fill="#007CC7"/>
<path d="M10.9849 15.8254C11.6636 15.8254 12.2139 15.2752 12.2139 14.5964C12.2139 13.9177 11.6636 13.3674 10.9849 13.3674C10.3061 13.3674 9.75586 13.9177 9.75586 14.5964C9.75586 15.2752 10.3061 15.8254 10.9849 15.8254Z" fill="#007CC7"/>
<path d="M14.4341 8.98046C15.1128 8.98046 15.6631 8.43022 15.6631 7.75146C15.6631 7.0727 15.1128 6.52246 14.4341 6.52246C13.7553 6.52246 13.2051 7.0727 13.2051 7.75146C13.2051 8.43022 13.7553 8.98046 14.4341 8.98046Z" fill="#007CC7"/>
<path d="M14.4341 12.4029C15.1128 12.4029 15.6631 11.8527 15.6631 11.1739C15.6631 10.4952 15.1128 9.94495 14.4341 9.94495C13.7553 9.94495 13.2051 10.4952 13.2051 11.1739C13.2051 11.8527 13.7553 12.4029 14.4341 12.4029Z" fill="#007CC7"/>
<path d="M14.4341 15.8254C15.1128 15.8254 15.6631 15.2752 15.6631 14.5964C15.6631 13.9177 15.1128 13.3674 14.4341 13.3674C13.7553 13.3674 13.2051 13.9177 13.2051 14.5964C13.2051 15.2752 13.7553 15.8254 14.4341 15.8254Z" fill="#007CC7"/>
</svg>
