<svg width="18" height="18" viewBox="0 0 18 18" fill="none" xmlns="http://www.w3.org/2000/svg">
<path d="M9 16.5C13.1421 16.5 16.5 13.1421 16.5 9C16.5 4.85786 13.1421 1.5 9 1.5C4.85786 1.5 1.5 4.85786 1.5 9C1.5 13.1421 4.85786 16.5 9 16.5Z" stroke="#007CC7" stroke-width="2" stroke-linecap="round" stroke-linejoin="round"/>
<path d="M8.99967 10.6667C9.92015 10.6667 10.6663 9.92052 10.6663 9.00004C10.6663 8.07957 9.92015 7.33337 8.99967 7.33337C8.0792 7.33337 7.33301 8.07957 7.33301 9.00004C7.33301 9.92052 8.0792 10.6667 8.99967 10.6667Z" stroke="#007CC7" stroke-width="2" stroke-linecap="round" stroke-linejoin="round"/>
<path d="M9 10.6666V16.5" stroke="#007CC7" stroke-width="2" stroke-linecap="round" stroke-linejoin="round"/>
<path d="M7.33301 9.00004L1.70801 7.33337" stroke="#007CC7" stroke-width="2" stroke-linecap="round" stroke-linejoin="round"/>
<path d="M10.667 9.00004L16.292 7.33337" stroke="#007CC7" stroke-width="2" stroke-linecap="round" stroke-linejoin="round"/>
</svg>
